<svg xmlns="http://www.w3.org/2000/svg" viewBox="0 0 100 100" fill="none">
  <defs>
    <linearGradient id="gradient" x1="0%" y1="0%" x2="100%" y2="100%">
      <stop offset="0%" style="stop-color:#4F46E5;stop-opacity:1" />
      <stop offset="100%" style="stop-color:#7C3AED;stop-opacity:1" />
    </linearGradient>
  </defs>
  
  <!-- Shopping bag -->
  <path d="M20 30 L80 30 L78 85 C78 87.2 76.2 89 74 89 L26 89 C23.8 89 22 87.2 22 85 L20 30 Z" 
        fill="url(#gradient)" stroke="#1F2937" stroke-width="2"/>
  
  <!-- Handle left -->
  <path d="M35 30 C35 20 42 13 50 13 C58 13 65 20 65 30" 
        fill="none" stroke="#1F2937" stroke-width="3" stroke-linecap="round"/>
  
  <!-- Shopping companion icons (two people) -->
  <circle cx="35" cy="55" r="6" fill="#FFF" opacity="0.9"/>
  <circle cx="65" cy="55" r="6" fill="#FFF" opacity="0.9"/>
  <path d="M25 75 C25 67 29 62 35 62 C41 62 45 67 45 75" fill="#FFF" opacity="0.8"/>
  <path d="M55 75 C55 67 59 62 65 62 C71 62 75 67 75 75" fill="#FFF" opacity="0.8"/>
  
  <!-- Connection line between companions -->
  <line x1="45" y1="65" x2="55" y2="65" stroke="#FFF" stroke-width="2" opacity="0.6"/>
</svg>
